<?xml version="1.0"?>
<svg xmlns="http://www.w3.org/2000/svg" xmlns:xlink="http://www.w3.org/1999/xlink" xmlns:svgjs="http://svgjs.com/svgjs" version="1.1" width="512" height="512" x="0" y="0" viewBox="0 0 473.68 473.68" style="enable-background:new 0 0 512 512" xml:space="preserve"><g>
<circle xmlns="http://www.w3.org/2000/svg" style="" cx="236.85" cy="236.849" r="236.83" fill="#ffffff" data-original="#ffffff"/>
<path xmlns="http://www.w3.org/2000/svg" style="" d="M460.143,157.873H314.218c6.339,50.593,6.376,106.339,0.123,156.995h146.113  c8.53-24.438,13.219-50.682,13.219-78.026C473.677,209.139,468.879,182.573,460.143,157.873z" fill="#efecec" data-original="#efecec"/>
<path xmlns="http://www.w3.org/2000/svg" style="" d="M314.218,157.873H460.14c-0.022-0.075-0.045-0.138-0.075-0.206  C429.756,72.2,351.785,9.319,258.105,0.972C294.361,20.844,304.951,83.804,314.218,157.873z" fill="#429945" data-original="#429945"/>
<path xmlns="http://www.w3.org/2000/svg" style="" d="M258.113,472.697c93.848-8.362,171.927-71.46,202.12-157.156c0.079-0.228,0.146-0.453,0.228-0.673  H314.345C305.149,389.338,294.514,452.742,258.113,472.697z" fill="#0b0b0b" data-original="#0b0b0b"/>
<path xmlns="http://www.w3.org/2000/svg" style="" d="M0,236.841c0,27.348,4.697,53.588,13.219,78.026h313.313c6.26-50.66,6.215-106.402-0.116-156.995  H13.534C4.798,182.573,0,209.139,0,236.841z" fill="#efefef" data-original="#efefef"/>
<path xmlns="http://www.w3.org/2000/svg" style="" d="M13.608,157.668c-0.022,0.067-0.045,0.131-0.075,0.206h312.883  c-9.274-74.07-32.056-137.029-68.307-156.901c-7.012-0.621-14.102-0.972-21.274-0.972C133.806,0,46.191,65.801,13.608,157.668z" fill="#49a948" data-original="#49a948"/>
<path xmlns="http://www.w3.org/2000/svg" style="" d="M326.532,314.867H13.219c0.079,0.221,0.153,0.445,0.228,0.673  C45.9,407.642,133.641,473.676,236.835,473.676c7.173,0,14.263-0.352,21.274-0.98C294.514,452.742,317.336,389.338,326.532,314.867z  " fill="#151515" data-original="#151515"/>
<path xmlns="http://www.w3.org/2000/svg" style="" d="M0,236.841c0,98.586,60.263,183.086,145.952,218.735V18.099C60.263,53.741,0,138.241,0,236.841z" fill="#e73b36" data-original="#e73b36"/>
<g xmlns="http://www.w3.org/2000/svg">
</g>
<g xmlns="http://www.w3.org/2000/svg">
</g>
<g xmlns="http://www.w3.org/2000/svg">
</g>
<g xmlns="http://www.w3.org/2000/svg">
</g>
<g xmlns="http://www.w3.org/2000/svg">
</g>
<g xmlns="http://www.w3.org/2000/svg">
</g>
<g xmlns="http://www.w3.org/2000/svg">
</g>
<g xmlns="http://www.w3.org/2000/svg">
</g>
<g xmlns="http://www.w3.org/2000/svg">
</g>
<g xmlns="http://www.w3.org/2000/svg">
</g>
<g xmlns="http://www.w3.org/2000/svg">
</g>
<g xmlns="http://www.w3.org/2000/svg">
</g>
<g xmlns="http://www.w3.org/2000/svg">
</g>
<g xmlns="http://www.w3.org/2000/svg">
</g>
<g xmlns="http://www.w3.org/2000/svg">
</g>
</g></svg>
